
<svg width="155" height="17" viewBox="0 0 155 17" fill="none" xmlns="http://www.w3.org/2000/svg">
<path d="M0.28 0.999999H18.4C17.3067 3.49333 16.2067 5.99333 15.1 8.5C14.0067 10.9933 12.9067 13.4933 11.8 16H2.4C2.74667 15.3467 3.09333 14.6933 3.44 14.04C3.8 13.3867 4.15333 12.74 4.5 12.1C4.86 11.4467 5.22 10.7933 5.58 10.14C5.94 9.48667 6.29333 8.83333 6.64 8.18C7 7.52667 7.35333 6.87333 7.7 6.22C7.7 6.20667 7.7 6.2 7.7 6.2C7.7 6.18667 7.7 6.18 7.7 6.18C7.7 6.18 7.69333 6.18 7.68 6.18C7.68 6.18 7.67333 6.18 7.66 6.18H0.28V0.999999ZM29.8789 0.999999H38.1789C38.1789 1.84 38.1789 2.68 38.1789 3.52C38.1789 4.36 38.1789 5.2 38.1789 6.04C38.1789 6.88 38.1789 7.72667 38.1789 8.58C38.1789 9.80667 38.1789 11.04 38.1789 12.28C38.1789 13.52 38.1789 14.76 38.1789 16H29.8789C29.8789 15.1867 29.8789 14.3733 29.8789 13.56C29.8789 12.7467 29.8789 11.9333 29.8789 11.12C29.8789 11.1067 29.8722 11.1 29.8589 11.1C29.8589 11.0867 29.8522 11.08 29.8389 11.08H27.0989C27.0856 11.08 27.0789 11.0867 27.0789 11.1C27.0789 11.1 27.0789 11.1067 27.0789 11.12C27.0789 11.9333 27.0789 12.7467 27.0789 13.56C27.0789 14.3733 27.0789 15.1867 27.0789 16H18.7789C18.7789 15.2 18.7789 14.4 18.7789 13.6C18.7789 12.8 18.7789 12 18.7789 11.2C18.7789 10.4 18.7789 9.6 18.7789 8.8C18.7789 8 18.7789 7.2 18.7789 6.4C18.7789 5.6 18.7789 4.8 18.7789 4C18.7789 3.49333 18.7789 2.99333 18.7789 2.5C18.7789 1.99333 18.7789 1.49333 18.7789 0.999999H27.0789C27.0789 1.64 27.0789 2.28667 27.0789 2.94C27.0789 3.59333 27.0789 4.24667 27.0789 4.9C27.0789 5.54 27.0789 6.18667 27.0789 6.84C27.0789 6.85333 27.0789 6.86667 27.0789 6.88C27.0789 6.88 27.0856 6.88 27.0989 6.88H29.8389C29.8522 6.88 29.8589 6.88 29.8589 6.88C29.8722 6.86667 29.8789 6.85333 29.8789 6.84C29.8789 5.86667 29.8789 4.89333 29.8789 3.92C29.8789 2.94667 29.8789 1.97333 29.8789 0.999999ZM55.7942 6.04H47.0942C47.0809 6.04 47.0742 6.04 47.0742 6.04V7.14C47.0742 7.15333 47.0742 7.16667 47.0742 7.18C47.0876 7.18 47.0942 7.18 47.0942 7.18H55.4942V10H47.0942C47.0942 10 47.0876 10 47.0742 10C47.0742 10 47.0742 10.0067 47.0742 10.02C47.0742 10.02 47.0742 10.0267 47.0742 10.04V11.16C47.0876 11.16 47.0942 11.16 47.0942 11.16H55.9142V16H38.9742C38.9742 15.2133 38.9742 14.4267 38.9742 13.64C38.9742 12.84 38.9742 12.0467 38.9742 11.26C38.9742 10.4733 38.9742 9.68667 38.9742 8.9C38.9742 8.1 38.9742 7.30667 38.9742 6.52C38.9742 5.72 38.9742 4.92667 38.9742 4.14C38.9742 3.62 38.9742 3.1 38.9742 2.58C38.9742 2.04667 38.9742 1.52 38.9742 0.999999H55.7942V6.04ZM72.9295 0.999999C73.1695 1.82667 73.4029 2.66 73.6295 3.5C73.8695 4.32667 74.1029 5.16 74.3295 6C74.5695 6.82667 74.8095 7.66 75.0495 8.5C75.2895 9.32667 75.5229 10.16 75.7495 11C75.9895 11.8267 76.2229 12.66 76.4495 13.5C76.6895 14.3267 76.9295 15.16 77.1695 16H68.2495L67.9095 14.04C67.8562 14.04 67.8095 14.04 67.7695 14.04C67.7295 14.04 67.6829 14.04 67.6295 14.04H65.4295C65.3895 14.04 65.3495 14.04 65.3095 14.04C65.2695 14.04 65.2295 14.04 65.1895 14.04L64.8495 16H56.3095C56.5495 15.16 56.7829 14.3267 57.0095 13.5C57.2495 12.66 57.4829 11.8267 57.7095 11C57.9495 10.16 58.1829 9.32667 58.4095 8.5C58.6495 7.66 58.8829 6.82667 59.1095 6C59.3495 5.16 59.5829 4.32667 59.8095 3.5C60.0495 2.66 60.2829 1.82667 60.5095 0.999999H72.9295ZM65.4295 12.62C65.4295 12.6333 65.4295 12.64 65.4295 12.64C65.4295 12.64 65.4362 12.64 65.4495 12.64H67.6495C67.6629 12.64 67.6695 12.64 67.6695 12.64C67.6695 12.6267 67.6695 12.62 67.6695 12.62C67.6695 12.62 67.6429 12.46 67.5895 12.14C67.5362 11.8067 67.4629 11.3933 67.3695 10.9C67.2895 10.3933 67.2029 9.86 67.1095 9.3C67.0162 8.72667 66.9295 8.18667 66.8495 7.68C66.7695 7.17333 66.6962 6.76 66.6295 6.44C66.5762 6.12 66.5495 5.96 66.5495 5.96C66.5495 5.96 66.5429 5.96 66.5295 5.96C66.5295 5.96 66.5029 6.12 66.4495 6.44C66.3962 6.76 66.3229 7.17333 66.2295 7.68C66.1495 8.18667 66.0629 8.72667 65.9695 9.3C65.8762 9.86 65.7895 10.3933 65.7095 10.9C65.6295 11.3933 65.5629 11.8067 65.5095 12.14C65.4562 12.46 65.4295 12.62 65.4295 12.62ZM94.8764 0.999999C94.5831 2 94.2831 3 93.9764 4C93.6831 5 93.3831 6 93.0764 7C92.7831 8 92.4831 9 92.1764 10C91.8831 11 91.5831 12 91.2764 13C90.9831 14 90.6831 15 90.3764 16H78.7964C78.3031 14.3333 77.8031 12.6667 77.2964 11C76.8031 9.33333 76.3097 7.66667 75.8164 6C75.3231 4.33333 74.8231 2.66667 74.3164 0.999999H83.2364C83.3164 1.52 83.3964 2.04 83.4764 2.56C83.5697 3.06667 83.6564 3.58 83.7364 4.1C83.8164 4.62 83.8964 5.14 83.9764 5.66C84.0564 6.18 84.1364 6.7 84.2164 7.22C84.2964 7.74 84.3764 8.26 84.4564 8.78C84.5497 9.28667 84.6364 9.8 84.7164 10.32C84.7297 10.32 84.7364 10.32 84.7364 10.32C84.7497 10.32 84.7564 10.32 84.7564 10.32C84.8231 9.88 84.8897 9.44 84.9564 9C85.0364 8.54667 85.1097 8.1 85.1764 7.66C85.2431 7.22 85.3097 6.78 85.3764 6.34C85.4564 5.88667 85.5297 5.44 85.5964 5C85.6764 4.54667 85.7497 4.1 85.8164 3.66C85.8831 3.22 85.9497 2.78 86.0164 2.34C86.0964 1.88667 86.1697 1.44 86.2364 0.999999H94.8764ZM112.103 6.04H103.403C103.389 6.04 103.383 6.04 103.383 6.04V7.14C103.383 7.15333 103.383 7.16667 103.383 7.18C103.396 7.18 103.403 7.18 103.403 7.18H111.803V10H103.403C103.403 10 103.396 10 103.383 10C103.383 10 103.383 10.0067 103.383 10.02C103.383 10.02 103.383 10.0267 103.383 10.04V11.16C103.396 11.16 103.403 11.16 103.403 11.16H112.223V16H95.2828C95.2828 15.2133 95.2828 14.4267 95.2828 13.64C95.2828 12.84 95.2828 12.0467 95.2828 11.26C95.2828 10.4733 95.2828 9.68667 95.2828 8.9C95.2828 8.1 95.2828 7.30667 95.2828 6.52C95.2828 5.72 95.2828 4.92667 95.2828 4.14C95.2828 3.62 95.2828 3.1 95.2828 2.58C95.2828 2.04667 95.2828 1.52 95.2828 0.999999H112.103V6.04ZM124.798 0.999999H132.498C132.498 1.49333 132.498 1.99333 132.498 2.5C132.498 2.99333 132.498 3.49333 132.498 4C132.498 4.49333 132.498 4.99333 132.498 5.5C132.498 5.99333 132.498 6.49333 132.498 7C132.498 7.49333 132.498 7.99333 132.498 8.5C132.498 9.75333 132.498 11.0067 132.498 12.26C132.498 13.5 132.498 14.7467 132.498 16H123.238L120.718 8.8C120.718 8.78667 120.711 8.78 120.698 8.78C120.698 8.78 120.691 8.78 120.678 8.78C120.678 8.78 120.678 8.78667 120.678 8.8C120.678 9.97333 120.678 11.1733 120.678 12.4C120.678 13.6267 120.678 14.8267 120.678 16H112.978C112.978 15 112.978 14 112.978 13C112.978 12 112.978 11 112.978 10C112.978 9 112.978 8 112.978 7C112.978 6 112.978 5 112.978 4C112.978 3 112.978 2 112.978 0.999999H121.938L124.758 9.3C124.771 9.3 124.778 9.3 124.778 9.3C124.791 9.3 124.798 9.3 124.798 9.3C124.798 9.28667 124.798 9.28 124.798 9.28V0.999999ZM143.731 6.96C145.731 6.96 147.404 7.04667 148.751 7.22C150.097 7.39333 151.171 7.66667 151.971 8.04C152.771 8.4 153.344 8.86667 153.691 9.44C154.037 10 154.211 10.6667 154.211 11.44C154.211 12.28 153.937 13.0267 153.391 13.68C152.857 14.32 152.104 14.86 151.131 15.3C150.171 15.7267 149.051 16.0467 147.771 16.26C146.504 16.4867 145.137 16.6 143.671 16.6C142.044 16.6 140.564 16.48 139.231 16.24C137.897 16 136.764 15.6333 135.831 15.14C134.897 14.6333 134.197 13.9867 133.731 13.2C133.277 12.4133 133.097 11.4733 133.191 10.38L141.731 9.8C141.624 10.2 141.651 10.5333 141.811 10.8C141.984 11.0667 142.251 11.2667 142.611 11.4C142.971 11.5333 143.371 11.6 143.811 11.6C144.077 11.6 144.317 11.58 144.531 11.54C144.757 11.5 144.957 11.44 145.131 11.36C145.304 11.28 145.437 11.18 145.531 11.06C145.624 10.9267 145.671 10.78 145.671 10.62C145.671 10.3 145.504 10.0933 145.171 10C144.851 9.90667 144.377 9.86 143.751 9.86C143.724 9.86 143.691 9.86 143.651 9.86C143.624 9.86 143.591 9.86 143.551 9.86C143.524 9.86 143.491 9.86 143.451 9.86C143.411 9.86 143.371 9.86 143.331 9.86C143.304 9.86 143.277 9.86 143.251 9.86C141.277 9.86 139.637 9.76 138.331 9.56C137.024 9.34667 135.991 9.05333 135.231 8.68C134.471 8.30667 133.931 7.86667 133.611 7.36C133.291 6.84 133.131 6.26 133.131 5.62C133.131 4.94 133.311 4.32667 133.671 3.78C134.031 3.22 134.537 2.73333 135.191 2.32C135.857 1.89333 136.631 1.54 137.511 1.26C138.404 0.979999 139.377 0.766666 140.431 0.619999C141.497 0.473333 142.611 0.399999 143.771 0.399999C145.411 0.399999 146.877 0.546666 148.171 0.84C149.477 1.13333 150.571 1.55333 151.451 2.1C152.344 2.64667 152.984 3.3 153.371 4.06C153.757 4.82 153.851 5.67333 153.651 6.62L145.391 7C145.537 6.61333 145.531 6.3 145.371 6.06C145.211 5.80667 144.957 5.62667 144.611 5.52C144.277 5.4 143.897 5.34 143.471 5.34C143.204 5.34 142.964 5.36667 142.751 5.42C142.537 5.46 142.351 5.52667 142.191 5.62C142.044 5.7 141.924 5.8 141.831 5.92C141.751 6.04 141.711 6.16667 141.711 6.3C141.711 6.46 141.764 6.59333 141.871 6.7C141.977 6.79333 142.137 6.86 142.351 6.9C142.577 6.94 142.871 6.96 143.231 6.96C143.257 6.96 143.284 6.96 143.311 6.96C143.351 6.96 143.384 6.96 143.411 6.96C143.451 6.96 143.484 6.96 143.511 6.96C143.551 6.96 143.584 6.96 143.611 6.96C143.651 6.96 143.691 6.96 143.731 6.96Z" fill="#FF5227"/>
</svg>
